<svg width="17" height="16" viewBox="0 0 17 16" fill="none" xmlns="http://www.w3.org/2000/svg">
<path fill-rule="evenodd" clip-rule="evenodd" d="M8.06189 0C12.4619 0 16.0619 3.58889 16.0619 7.97531C16.0619 12.3617 12.4619 15.9506 8.06189 15.9506C3.66189 15.9506 0.0618896 12.3617 0.0618896 7.97531C0.0618896 3.58889 3.66189 0 8.06189 0ZM8.06189 14.5948C11.7419 14.5948 14.7019 11.644 14.7019 7.97531C14.7019 4.30667 11.7419 1.3558 8.06189 1.3558C4.38189 1.3558 1.42189 4.30667 1.42189 7.97531C1.42189 11.644 4.38189 14.5948 8.06189 14.5948ZM9.26189 5.18395L7.26189 7.17778H12.0619V8.77284H7.26189L9.26189 10.7667L8.06189 11.963L4.06189 7.97531L8.06189 3.98765L9.26189 5.18395Z" fill="white"/>
</svg>
